<svg width="32" height="24" viewBox="0 0 32 24" fill="none" xmlns="http://www.w3.org/2000/svg">
<path d="M6.975 16.3875C6.975 16.8548 6.83644 17.3115 6.57685 17.7C6.31725 18.0885 5.94828 18.3914 5.51659 18.5702C5.0849 18.749 4.60988 18.7958 4.1516 18.7046C3.69332 18.6134 3.27236 18.3884 2.94196 18.058C2.61156 17.7276 2.38655 17.3067 2.2954 16.8484C2.20424 16.3901 2.25102 15.9151 2.42984 15.4834C2.60865 15.0517 2.91146 14.6827 3.29997 14.4232C3.68848 14.1636 4.14524 14.025 4.6125 14.025H13.3875C13.8548 14.025 14.3115 14.1636 14.7 14.4232C15.0885 14.6827 15.3914 15.0517 15.5702 15.4834C15.749 15.9151 15.7958 16.3901 15.7046 16.8484C15.6134 17.3067 15.3884 17.7276 15.058 18.058C14.7276 18.3884 14.3067 18.6134 13.8484 18.7046C13.3901 18.7958 12.9151 18.749 12.4834 18.5702C12.0517 18.3914 11.6827 18.0885 11.4232 17.7C11.1636 17.3115 11.025 16.8548 11.025 16.3875V7.6125C11.025 7.14524 11.1636 6.68848 11.4232 6.29997C11.6827 5.91146 12.0517 5.60865 12.4834 5.42984C12.9151 5.25102 13.3901 5.20424 13.8484 5.2954C14.3067 5.38655 14.7276 5.61156 15.058 5.94196C15.3884 6.27236 15.6134 6.69332 15.7046 7.1516C15.7958 7.60988 15.749 8.0849 15.5702 8.51659C15.3914 8.94828 15.0885 9.31725 14.7 9.57685C14.3115 9.83644 13.8548 9.975 13.3875 9.975H4.6125C4.14524 9.975 3.68848 9.83644 3.29997 9.57685C2.91146 9.31725 2.60865 8.94828 2.42984 8.51659C2.25102 8.0849 2.20424 7.60988 2.2954 7.1516C2.38655 6.69332 2.61156 6.27236 2.94196 5.94196C3.27236 5.61156 3.69332 5.38655 4.1516 5.2954C4.60988 5.20424 5.0849 5.25102 5.51659 5.42984C5.94828 5.60865 6.31725 5.91146 6.57685 6.29997C6.83644 6.68848 6.975 7.14524 6.975 7.6125V16.3875Z" stroke="#323B49" stroke-width="1.5"/>
<path d="M30.8 18H28.64L25.304 13.384L24.624 14.208V18H22.96V6.8H24.624V11.624L28.656 6.8H30.832L26.4 12.088L30.8 18Z" fill="#323B49"/>
</svg>
