<svg width="6" height="19" viewBox="0 0 6 19" fill="none" xmlns="http://www.w3.org/2000/svg">
<path d="M4.66658 9.33827C4.66658 10.2605 3.92039 11.0082 2.99992 11.0082C2.07944 11.0082 1.33325 10.2605 1.33325 9.33827C1.33325 8.416 2.07944 7.66835 2.99992 7.66835C3.92039 7.66835 4.66658 8.416 4.66658 9.33827Z" stroke="#04091E" stroke-width="1.5"/>
<path d="M4.66658 2.65857C4.66658 3.58085 3.92039 4.3285 2.99992 4.3285C2.07944 4.3285 1.33325 3.58085 1.33325 2.65857C1.33325 1.7363 2.07944 0.988647 2.99992 0.988647C3.92039 0.988647 4.66658 1.7363 4.66658 2.65857Z" stroke="#04091E" stroke-width="1.5"/>
<path d="M4.66658 16.018C4.66658 16.9402 3.92039 17.6879 2.99992 17.6879C2.07944 17.6879 1.33325 16.9402 1.33325 16.018C1.33325 15.0957 2.07944 14.348 2.99992 14.348C3.92039 14.348 4.66658 15.0957 4.66658 16.018Z" stroke="#04091E" stroke-width="1.5"/>
</svg>
