<svg width="24" height="24" viewBox="0 0 24 24" fill="none" xmlns="http://www.w3.org/2000/svg">
<path d="M20.58 6.55996L18.4 8.73996C17.82 9.30996 16.87 9.30998 16.29 8.72998L15.27 7.70996C14.69 7.12996 14.69 6.17995 15.27 5.60995L17.44 3.41998C15.91 2.80998 14.01 2.78995 12.23 3.85995C11.51 4.28995 10.9 4.86997 10.47 5.56997C10.44 5.60997 10.41 5.64998 10.39 5.69998C9.61 6.98998 9.4 8.33996 9.58 9.55996C9.65 10.02 9.49 10.48 9.16 10.8L3.84 16.13C3.28 16.68 3 17.42 3 18.14C3 18.88 3.28 19.6 3.84 20.16C4.95 21.28 6.75999 21.28 7.87 20.16L13.2 14.84C13.52 14.51 13.98 14.35 14.44 14.42C15.66 14.6 17.01 14.39 18.29 13.62C19.05 13.17 19.69 12.53 20.13 11.78C21.21 9.99997 21.19 8.08996 20.58 6.55996ZM6.02 19C5.47 19 5.02 18.55 5.02 18C5.02 17.45 5.45999 17 6.00999 17H6.02C6.57 17 7.02 17.45 7.02 18C7.02 18.55 6.57 19 6.02 19Z" fill="#DEE33E"/>
</svg>
