<svg width="24" height="24" viewBox="0 0 24 24" fill="none" xmlns="http://www.w3.org/2000/svg">
<path d="M10.48 11.15C10.73 11.26 10.99 11.3301 11.25 11.3901V20.9101C11.09 20.8701 10.93 20.81 10.78 20.74L4.78003 18.0701C3.70003 17.5901 3 16.52 3 15.33V8.67006C3 8.40006 3.03999 8.13005 3.10999 7.88005L10.48 11.15ZM14.8199 8.92006L6.67004 5.09005L4.78003 5.93004C4.43003 6.08004 4.13 6.30005 3.87 6.56005L11.08 9.77004C11.66 10.03 12.33 10.03 12.92 9.77004L14.8199 8.92006ZM20.13 6.56005C19.87 6.30005 19.57 6.08004 19.22 5.93004L13.22 3.26006C12.44 2.91006 11.56 2.91006 10.78 3.26006L8.48999 4.28005L16.64 8.11003L20.13 6.56005ZM20.89 7.88005L17.38 9.44005V11.8901C17.38 12.3001 17.04 12.6401 16.63 12.6401C16.22 12.6401 15.88 12.3001 15.88 11.8901V10.1001L13.52 11.15C13.27 11.25 13.01 11.3301 12.75 11.3901V20.9101C12.91 20.8701 13.07 20.81 13.22 20.74L19.22 18.0701C20.3 17.5901 21 16.52 21 15.33V8.67006C21 8.40006 20.96 8.13005 20.89 7.88005Z" fill="#DEE33E"/>
</svg>
