<svg width="121" height="64" viewBox="0 0 121 64" fill="none" xmlns="http://www.w3.org/2000/svg">
<path d="M41.5053 19.2104C39.0012 11.5036 43.2188 3.22614 50.9255 0.722079C58.6322 -1.78199 66.9097 2.4356 69.4138 10.1423L80.5947 44.5538C83.0988 52.2605 78.8812 60.538 71.1745 63.0421C63.4678 65.5461 55.1903 61.3285 52.6862 53.6218L41.5053 19.2104Z" fill="#DEE33E"/>
<path d="M80.5366 19.2104C78.0326 11.5036 82.2501 3.22614 89.9569 0.722079C97.6636 -1.78199 105.941 2.4356 108.445 10.1423L119.626 44.5538C122.13 52.2605 117.913 60.538 110.206 63.0421C102.499 65.5461 94.2216 61.3285 91.7176 53.6218L80.5366 19.2104Z" fill="#DEE33E"/>
<path d="M1.28409 19.2104C-1.21998 11.5036 2.99761 3.22614 10.7043 0.722079C18.4111 -1.78199 26.6885 2.4356 29.1926 10.1423L40.3736 44.5538C42.8776 52.2605 38.66 60.538 30.9533 63.0421C23.2466 65.5461 14.9691 61.3285 12.465 53.6218L1.28409 19.2104Z" fill="#DEE33E"/>
</svg>
