<svg width="16" height="14" viewBox="0 0 16 14" fill="none" xmlns="http://www.w3.org/2000/svg">
<path d="M13.4316 0.739868L12.4444 0.739868L8.55551 0.739868L7.56835 0.739868C6.28203 0.739868 5.48058 2.13522 6.12871 3.24632L9.06032 8.27193C9.70345 9.37444 11.2965 9.37444 11.9396 8.27193L14.8712 3.24632C15.5193 2.13523 14.7179 0.739869 13.4316 0.739868Z" fill="#9FA324"/>
<path opacity="0.4" d="M2.16927 13.2655L3.15643 13.2655L7.04532 13.2655L8.03248 13.2655C9.3188 13.2655 10.1203 11.8701 9.47212 10.7591L6.54051 5.73344C5.89738 4.63093 4.30438 4.63093 3.66125 5.73344L0.729641 10.7591C0.081503 11.8701 0.882955 13.2655 2.16927 13.2655Z" fill="#9FA324"/>
</svg>
